<?xml version="1.0" encoding="UTF-8" standalone="no"?>
<svg
   width="100%"
   height="100%"
   viewBox="0 0 1250 200"
   version="1.1"
   id="svg1"
   xml:space="preserve"
   sodipodi:docname="logo_text.svg"
   inkscape:version="1.4.2 (f4327f4, 2025-05-13)"
   xmlns:inkscape="http://www.inkscape.org/namespaces/inkscape"
   xmlns:sodipodi="http://sodipodi.sourceforge.net/DTD/sodipodi-0.dtd"
   xmlns="http://www.w3.org/2000/svg"
   xmlns:svg="http://www.w3.org/2000/svg">
   
   <sodipodi:namedview
   id="namedview1"
   pagecolor="#ffffff"
   bordercolor="#000000"
   borderopacity="0.25"
   inkscape:showpageshadow="2"
   inkscape:pageopacity="0.0"
   inkscape:pagecheckerboard="0"
   inkscape:deskcolor="#d1d1d1"
   inkscape:zoom="0.96625"
   inkscape:cx="235.96378"
   inkscape:cy="62.613195"
   inkscape:window-width="1920"
   inkscape:window-height="991"
   inkscape:window-x="-9"
   inkscape:window-y="-9"
   inkscape:window-maximized="1"
   inkscape:current-layer="layer1"
   showguides="false" />
   
  <defs
   id="defs1" />
  <g
   id="logo-group"
   transform="matrix(3.5365296,0,0,3.6715678,-249.09173,-253.36445)">
   <path
   id="rect1"
   style="fill:#ffffff;stroke-width:3.603"
   transform="matrix(0.28276308,0,0,0.27236321,70.433945,69.007155)"
   d="M 0,0 H 200 V 200 H 0 Z" /><path
   id="fire-icon"
   style="fill:#c32824;stroke-width:0.9998845;stroke-dasharray:none"
   d="M 70.433944,69.007157 V 123.4798 H 94.250578 L 81.369194,112.47686 c 0,0 0.780986,-3.64377 0.545703,-5.92626 C 81.6818,104.28933 80.01062,99.163973 80.01062,99.163973 l 8.188131,-0.107487 10.511503,-20.771859 10.511506,20.771859 8.18829,0.107487 c 0,0 -1.67118,5.125357 -1.90444,7.386627 -0.23528,2.28249 0.5457,5.92626 0.5457,5.92626 l -12.88138,11.00294 h 23.81663 V 69.007157 Z m 28.27631,30.985189 -5.955192,11.910904 c 0,0 4.378376,1.37248 6.315385,1.32085 2.385203,-0.0636 5.883353,-1.22473 5.883353,-1.22473 z" />
  </g><g
   id="layer1"
   inkscape:label="text-group"
   transform="matrix(1.0032741,0,0,1.0416667,9.9204763,-0.83494603)"><path
     d="M 257.76155,126.94555 V 73.185547 c 0,-3.072 2.496,-5.76 5.76,-5.76 h 8.064 c 9.6,0 17.28,7.872 17.28,17.28 v 30.720003 c 0,9.6 -7.68,17.28 -17.28,17.28 h -8.064 c -3.264,0 -5.76,-2.496 -5.76,-5.76 z m -38.4,37.056 c 0,5.376 4.224,9.6 9.6,9.6 h 56.64 c 24.384,0 44.16,-19.776 44.16,-44.16 V 73.761547 c 0,-24.384 -19.776,-44.16 -44.16,-44.16 h -56.64 c -5.376,0 -9.6,4.224 -9.6,9.6 z m 157.54404,-32.448 v -20.16 c 0,-1.728 1.344,-3.072 2.88,-3.072 h 16.704 c 4.8,0 8.832,3.84 8.832,8.448 v 13.824 c 0,4.992 -4.032,8.832 -9.024,8.832 h -11.712 c -4.224,0 -7.68,-3.648 -7.68,-7.872 z m -35.904,26.112 c 0,8.832 7.104,15.936 15.744,15.936 h 58.56 c 13.824,0 26.88,-11.136 26.88,-24.96 v -38.784 c 0,-17.472003 -16.128,-31.872003 -33.792,-31.872003 h -25.728 c -3.264,0 -5.76,-2.688 -5.76,-5.952 v -36.672 c 0,-3.264 -2.496,-5.76 -5.76,-5.76 h -24.384 c -3.264,0 -5.76,2.496 -5.76,5.76 z m 112.42398,-12.672 V 84.129547 c 0,-3.648 2.88,-6.528 6.528,-6.528 h 28.032 c 3.648,0 6.528,2.88 6.528,6.528 v 48.576003 c 0,4.8 4.032,8.832 8.832,8.832 h 7.104 c 4.8,0 8.832,-4.032 8.832,-8.832 V 84.129547 c 0,-3.648 2.88,-6.528 6.528,-6.528 h 28.032 c 3.648,0 6.528,2.88 6.528,6.528 v 63.360003 c 0,14.592 -11.52,26.112 -26.112,26.112 h -52.224 c -15.744,0 -28.608,-12.864 -28.608,-28.608 z m 210.72812,-41.664 v 25.344 c 0,3.648 -3.072,6.528 -6.72,6.528 h -23.424 c -3.648,0 -6.72,-2.88 -6.72,-6.528 v -13.44 c 0,-3.648 -3.072,-6.72 -6.72,-6.72 h -7.872 c -3.648,0 -2.88,3.072 -2.88,6.72 v 51.84 c 0,3.648 -2.88,6.528 -6.72,6.528 h -24.768 c -3.648,0 -6.72,-2.88 -6.72,-6.528 V 84.129547 c 0,-3.648 3.072,-6.528 6.72,-6.528 h 59.328 c 14.592,0 26.496,11.52 26.496,25.728003 z m 118.18396,2.88 v 60.864 c 0,3.648 -2.88,6.528 -6.528,6.528 h -28.032 c -3.648,0 -6.528,-2.88 -6.528,-6.528 v -46.656 c 0,-4.8 -4.032,-8.832 -8.832,-8.832 h -7.104 c -4.8,0 -8.832,4.032 -8.832,8.832 v 46.656 c 0,3.648 -2.88,6.528 -6.528,6.528 h -28.032 c -3.648,0 -6.528,-2.88 -6.528,-6.528 V 84.129547 c 0,-3.648 2.88,-6.528 6.528,-6.528 h 72 c 15.744,0 28.416,12.864 28.416,28.608003 z m 103.78408,-2.88 v 25.344 c 0,3.648 -3.072,6.528 -6.72,6.528 h -23.424 c -3.648,0 -6.72,-2.88 -6.72,-6.528 v -13.44 c 0,-3.648 -3.072,-6.72 -6.72,-6.72 h -7.872 c -3.648,0 -2.88,3.072 -2.88,6.72 v 51.84 c 0,3.648 -2.88,6.528 -6.72,6.528 h -24.768 c -3.648,0 -6.72,-2.88 -6.72,-6.528 V 84.129547 c 0,-3.648 3.072,-6.528 6.72,-6.528 h 59.328 c 14.592,0 26.496,11.52 26.496,25.728003 z m 71.528,37.632 h -9.024 c -5.952,0 -10.944,-4.992 -10.944,-10.944 v -13.056 c 0,-4.992 4.224,-9.216 9.6,-9.216 h 16.128 c 1.152,0 2.112,0.768 2.112,2.112 v 23.232 c 0,4.224 -3.456,7.872 -7.872,7.872 z m -60.288,0.192 c 0,18.048 15.168,32.448 34.56,32.448 h 20.928 30.72 14.4 c 3.45597,0 6.52797,-2.88 6.52797,-6.528 V 84.129547 c 0,-3.648 -3.072,-6.528 -6.52797,-6.528 h -64.128 c -20.352,0 -36.48,16.32 -36.48,36.288003 z M 1103.6737,77.217547 h -17.28 c -3.264,0 -5.76,-2.688 -5.76,-5.76 v -36.096 c 0,-3.072 -2.688,-5.76 -5.76,-5.76 h -24.576 c -3.072,0 -5.76,2.688 -5.76,5.76 v 36.096 c 0,3.072 -2.496,5.76 -5.76,5.76 h -17.28 c -3.072,0 -5.76,2.496 -5.76,5.76 v 26.304003 c 0,3.264 2.688,5.76 5.76,5.76 h 17.28 c 3.264,0 5.76,2.688 5.76,5.76 v 47.04 c 0,3.264 2.688,5.76 5.76,5.76 h 24.576 c 3.072,0 5.76,-2.496 5.76,-5.76 v -47.04 c 0,-3.072 2.496,-5.76 5.76,-5.76 h 17.28 c 3.072,0 5.76,-2.496 5.76,-5.76 V 82.977547 c 0,-3.264 -2.688,-5.76 -5.76,-5.76 z m 58.0881,19.776 h 20.16 c 2.688,0 4.992,2.112 4.992,4.800003 v 4.224 c 0,2.112 -1.536,3.456 -3.264,3.456 h -21.888 c -2.112,0 -3.456,-1.536 -3.456,-3.456 v -5.76 c 0,-1.728003 1.344,-3.264003 3.456,-3.264003 z m -41.088,50.304003 c 0,14.592 11.712,26.304 26.304,26.304 h 58.176 c 5.952,0 10.944,-4.992 10.944,-10.944 v -14.4 c 0,-3.84 -3.264,-7.104 -7.104,-7.104 h -45.696 c -2.304,0 -4.224,-1.92 -4.224,-4.224 v -2.304 c 0,-2.112 1.728,-3.84 3.84,-3.84 h 41.28 c 6.528,0 11.904,-5.376 11.904,-11.904 v -18.048 c 0,-12.864003 -10.368,-23.232003 -23.232,-23.232003 h -45.888 c -14.592,0 -26.304,11.712 -26.304,26.304003 z"
     id="text1"
     style="font-size:192px;line-height:0;font-family:CHIDO;-inkscape-font-specification:CHIDO;letter-spacing:-0.28px;stroke-width:3.603;fill:#1a1a1a"
     inkscape:label="text1"
     aria-label="Dburnrate&#10;" /></g>
</svg>
