<?xml version="1.0" encoding="UTF-8" standalone="no"?>
<svg
   width="200"
   height="200"
   viewBox="0 0 199.99999 200"
   version="1.1"
   id="svg1"
   xml:space="preserve"
   sodipodi:docname="logo.svg"
   inkscape:version="1.4.2 (f4327f4, 2025-05-13)"
   xmlns:inkscape="http://www.inkscape.org/namespaces/inkscape"
   xmlns:sodipodi="http://sodipodi.sourceforge.net/DTD/sodipodi-0.dtd"
   xmlns:xlink="http://www.w3.org/1999/xlink"
   xmlns="http://www.w3.org/2000/svg"
   xmlns:svg="http://www.w3.org/2000/svg">
   
   <sodipodi:namedview
   id="namedview1"
   pagecolor="#ffffff"
   bordercolor="#000000"
   borderopacity="0.25"
   inkscape:showpageshadow="2"
   inkscape:pageopacity="0.0"
   inkscape:pagecheckerboard="0"
   inkscape:deskcolor="#d1d1d1"
   inkscape:zoom="0.483125"
   inkscape:cx="-100.3881"
   inkscape:cy="303.23415"
   inkscape:window-width="2400"
   inkscape:window-height="1261"
   inkscape:window-x="2391"
   inkscape:window-y="-9"
   inkscape:window-maximized="1"
   inkscape:current-layer="svg1"
   showguides="false" />
   
  <defs
   id="defs1"><linearGradient
     id="linearGradient1"
     inkscape:collect="always"><stop
       style="stop-color:#e3170a;stop-opacity:1;"
       offset="0"
       id="stop1" /><stop
       style="stop-color:#edae49;stop-opacity:1;"
       offset="0.37381533"
       id="stop3" /></linearGradient><linearGradient
     inkscape:collect="always"
     xlink:href="#linearGradient1"
     id="linearGradient2"
     x1="65.166428"
     y1="65.342773"
     x2="186.31924"
     y2="154.41576"
     gradientUnits="userSpaceOnUse" /></defs>
  <g
   id="logo-group"
   transform="matrix(3.5365296,0,0,3.6715678,-249.09173,-253.36445)">
   <path
   id="rect1"
   style="fill:#ffffff;stroke-width:3.603"
   transform="matrix(0.28276308,0,0,0.27236321,70.433945,69.007155)"
   d="M 0,0 H 200 V 200 H 0 Z" /><path
   id="fire-icon"
   style="fill:url(#linearGradient2);fill-opacity:1;stroke-width:0.999884;stroke-dasharray:none"
   d="M 70.433944,69.007157 V 123.4798 H 94.250578 L 81.369194,112.47686 c 0,0 0.780986,-3.64377 0.545703,-5.92626 C 81.6818,104.28933 80.01062,99.163973 80.01062,99.163973 l 8.188131,-0.107487 10.511503,-20.771859 10.511506,20.771859 8.18829,0.107487 c 0,0 -1.67118,5.125357 -1.90444,7.386627 -0.23528,2.28249 0.5457,5.92626 0.5457,5.92626 l -12.88138,11.00294 h 23.81663 V 69.007157 Z m 28.27631,30.985189 -5.955192,11.910904 c 0,0 4.378376,1.37248 6.315385,1.32085 2.385203,-0.0636 5.883353,-1.22473 5.883353,-1.22473 z" />
  </g>
</svg>
