<?xml version="1.0" encoding="UTF-8" standalone="no"?>
<svg
   width="819"
   height="200"
   viewBox="0 0 818.99996 200"
   version="1.1"
   id="svg1"
   xml:space="preserve"
   sodipodi:docname="logo_text.svg"
   inkscape:version="1.4.2 (f4327f4, 2025-05-13)"
   xmlns:inkscape="http://www.inkscape.org/namespaces/inkscape"
   xmlns:sodipodi="http://sodipodi.sourceforge.net/DTD/sodipodi-0.dtd"
   xmlns:xlink="http://www.w3.org/1999/xlink"
   xmlns="http://www.w3.org/2000/svg"
   xmlns:svg="http://www.w3.org/2000/svg">
   
   <sodipodi:namedview
   id="namedview1"
   pagecolor="#ffffff"
   bordercolor="#000000"
   borderopacity="0.25"
   inkscape:showpageshadow="2"
   inkscape:pageopacity="0.0"
   inkscape:pagecheckerboard="0"
   inkscape:deskcolor="#d1d1d1"
   inkscape:zoom="0.96625"
   inkscape:cx="132.47089"
   inkscape:cy="217.85252"
   inkscape:window-width="2400"
   inkscape:window-height="1261"
   inkscape:window-x="2391"
   inkscape:window-y="-9"
   inkscape:window-maximized="1"
   inkscape:current-layer="svg1"
   showguides="false" />
   
  <defs
   id="defs1"><linearGradient
     id="linearGradient1"
     inkscape:collect="always"><stop
       style="stop-color:#e3170a;stop-opacity:1;"
       offset="0"
       id="stop1" /><stop
       style="stop-color:#edae49;stop-opacity:1;"
       offset="0.37381533"
       id="stop3" /></linearGradient><linearGradient
     inkscape:collect="always"
     xlink:href="#linearGradient1"
     id="linearGradient2"
     x1="65.166428"
     y1="65.342773"
     x2="186.31924"
     y2="154.41576"
     gradientUnits="userSpaceOnUse" /></defs>
  <g
   id="logo-group"
   transform="matrix(3.5365296,0,0,3.6715678,-249.09173,-253.36445)">
   <path
   id="rect1"
   style="fill:#ffffff;stroke-width:3.603"
   transform="matrix(0.28276308,0,0,0.27236321,70.433945,69.007155)"
   d="M 0,0 H 200 V 200 H 0 Z" /><path
   id="fire-icon"
   style="fill:url(#linearGradient2);fill-opacity:1;stroke-width:0.999884;stroke-dasharray:none"
   d="M 70.433944,69.007157 V 123.4798 H 94.250578 L 81.369194,112.47686 c 0,0 0.780986,-3.64377 0.545703,-5.92626 C 81.6818,104.28933 80.01062,99.163973 80.01062,99.163973 l 8.188131,-0.107487 10.511503,-20.771859 10.511506,20.771859 8.18829,0.107487 c 0,0 -1.67118,5.125357 -1.90444,7.386627 -0.23528,2.28249 0.5457,5.92626 0.5457,5.92626 l -12.88138,11.00294 h 23.81663 V 69.007157 Z m 28.27631,30.985189 -5.955192,11.910904 c 0,0 4.378376,1.37248 6.315385,1.32085 2.385203,-0.0636 5.883353,-1.22473 5.883353,-1.22473 z" />
  </g><g
   id="layer1"
   inkscape:label="text-group"
   transform="matrix(1.0032741,0,0,1.0416667,9.9204763,-0.83494603)"><path
     d="m 288.15293,95.463142 v 9.766328 c 0,3.19284 -2.62939,5.63442 -5.82223,5.63442 h -26.29396 c -3.00502,0 -5.44661,-2.44158 -5.44661,-5.63442 v -9.766328 c 0,-3.192837 2.44159,-5.634419 5.44661,-5.634419 h 26.29396 c 3.19284,0 5.82223,2.441582 5.82223,5.634419 z M 215.2811,189.74577 c 0,3.19284 2.44158,5.63442 5.63442,5.63442 h 77.37937 c 13.71042,0 24.79145,-9.3907 24.79145,-24.79145 v -18.21796 c 0,-18.96921 -14.6495,-20.47172 -19.34485,-20.47172 -0.56344,0 -1.12688,-0.56344 -1.12688,-1.12689 v -2.06595 c 0,-0.56344 0.56344,-1.12688 1.12688,-1.12688 4.69535,0 19.34485,-1.3147 19.34485,-20.65954 V 92.082491 c 0,-27.984286 -16.71545,-37.5628 -37.37499,-37.5628 h -64.79583 c -3.19284,0 -5.63442,2.629396 -5.63442,5.63442 z m 35.30903,-25.73052 v -10.32977 c 0,-2.06595 1.50252,-3.75628 3.56847,-3.75628 h 27.98428 c 3.38066,0 6.01005,2.44158 6.01005,5.63442 v 6.01005 c 0,3.56846 -3.00502,6.01005 -6.7613,6.01005 H 254.1586 c -2.06595,0 -3.56847,-1.50252 -3.56847,-3.56847 z m 83.4913,3.38065 v -59.53703 c 0,-3.56847 2.81721,-6.38568 6.38567,-6.38568 h 27.42085 c 3.56846,0 6.38567,2.81721 6.38567,6.38568 v 47.51694 c 0,4.69535 3.94409,8.63944 8.63944,8.63944 h 6.94912 c 4.69535,0 8.63945,-3.94409 8.63945,-8.63944 v -47.51694 c 0,-3.56847 2.81721,-6.38568 6.38567,-6.38568 h 27.42085 c 3.56846,0 6.38567,2.81721 6.38567,6.38568 v 61.97861 c 0,14.27387 -11.26884,25.54271 -25.5427,25.54271 h -51.08541 c -15.40075,0 -27.98428,-12.58354 -27.98428,-27.98429 z m 206.13379,-40.75563 v 24.79144 c 0,3.56847 -3.00502,6.38568 -6.57349,6.38568 h -22.9133 c -3.56847,0 -6.57349,-2.81721 -6.57349,-6.38568 v -13.14698 c 0,-3.56846 -3.00503,-6.57349 -6.57349,-6.57349 h -7.70038 c -3.56846,0 -2.81721,3.00503 -2.81721,6.57349 v 50.70978 c 0,3.56847 -2.81721,6.38568 -6.57349,6.38568 h -24.228 c -3.56847,0 -6.57349,-2.81721 -6.57349,-6.38568 v -81.13564 c 0,-3.56847 3.00502,-6.38568 6.57349,-6.38568 h 58.03452 c 14.27387,0 25.91833,11.26884 25.91833,25.16708 z m 115.60732,2.81721 v 59.53703 c 0,3.56847 -2.81721,6.38568 -6.38567,6.38568 h -27.42084 c -3.56847,0 -6.38568,-2.81721 -6.38568,-6.38568 v -45.6388 c 0,-4.69535 -3.94409,-8.63944 -8.63944,-8.63944 h -6.94912 c -4.69535,0 -8.63945,3.94409 -8.63945,8.63944 v 45.6388 c 0,3.56847 -2.81721,6.38568 -6.38567,6.38568 h -27.42084 c -3.56847,0 -6.38568,-2.81721 -6.38568,-6.38568 v -81.13564 c 0,-3.56847 2.81721,-6.38568 6.38568,-6.38568 h 70.43024 c 15.40075,0 27.79647,12.58354 27.79647,27.98429 z m 97.01387,-28.35992 h -16.90326 c -3.19284,0 -5.63442,-2.629394 -5.63442,-5.634418 V 60.154111 c 0,-3.005024 -2.62939,-5.63442 -5.63442,-5.63442 h -24.04019 c -3.00502,0 -5.63442,2.629396 -5.63442,5.63442 v 35.309031 c 0,3.005024 -2.44158,5.634418 -5.63442,5.634418 h -16.90326 c -3.00502,0 -5.63442,2.44158 -5.63442,5.63442 v 25.73052 c 0,3.19284 2.6294,5.63442 5.63442,5.63442 h 16.90326 c 3.19284,0 5.63442,2.6294 5.63442,5.63442 v 46.01443 c 0,3.19284 2.6294,5.63442 5.63442,5.63442 h 24.04019 c 3.00503,0 5.63442,-2.44158 5.63442,-5.63442 v -46.01443 c 0,-3.00502 2.44158,-5.63442 5.63442,-5.63442 h 16.90326 c 3.00503,0 5.63442,-2.44158 5.63442,-5.63442 v -25.73052 c 0,-3.19284 -2.62939,-5.63442 -5.63442,-5.63442 z"
     id="text1"
     style="font-size:187.814px;line-height:0;font-family:CHIDO;-inkscape-font-specification:CHIDO;letter-spacing:-0.273895px;stroke-width:3.52444"
     transform="scale(1.018954,0.98139857)"
     aria-label="Burnt" /></g>
</svg>
